<?xml version="1.0" encoding="UTF-8" standalone="no"?>
<svg
   fill="none"
   viewBox="0 0 24 24"
   stroke-width="1.5"
   stroke="currentColor"
   class="size-6"
   version="1.1"
   id="svg1"
   sodipodi:docname="favicon.svg"
   xml:space="preserve"
   inkscape:export-filename="favicon.png"
   inkscape:export-xdpi="128"
   inkscape:export-ydpi="128"
   inkscape:version="1.4.2 (ebf0e940d0, 2025-05-08)"
   xmlns:inkscape="http://www.inkscape.org/namespaces/inkscape"
   xmlns:sodipodi="http://sodipodi.sourceforge.net/DTD/sodipodi-0.dtd"
   xmlns="http://www.w3.org/2000/svg"
   xmlns:svg="http://www.w3.org/2000/svg"><defs
     id="defs1" /><sodipodi:namedview
     id="namedview1"
     pagecolor="#505050"
     bordercolor="#eeeeee"
     borderopacity="1"
     inkscape:showpageshadow="0"
     inkscape:pageopacity="0"
     inkscape:pagecheckerboard="0"
     inkscape:deskcolor="#505050"
     showguides="true"
     inkscape:export-bgcolor="#ffffff00"
     inkscape:zoom="22.627417"
     inkscape:cx="8.9714173"
     inkscape:cy="14.230524"
     inkscape:window-width="2530"
     inkscape:window-height="1382"
     inkscape:window-x="0"
     inkscape:window-y="0"
     inkscape:window-maximized="1"
     inkscape:current-layer="layer3" /><path
     stroke-linecap="round"
     stroke-linejoin="round"
     d="M 5.5384606,0.92307525 V 3.6923064 M 18.461539,0.92307525 V 3.6923064 M 0.92307525,20.307694 V 6.4615375 A 2.7692312,2.7692311 0 0 1 3.6923065,3.6923064 H 20.307694 a 2.7692312,2.7692311 0 0 1 2.769231,2.7692311 V 20.307694 m -22.15384975,0 A 2.7692312,2.7692311 0 0 0 3.6923065,23.076925 H 20.307694 a 2.7692312,2.7692311 0 0 0 2.769231,-2.769231 m -22.15384975,0 V 11.076923 A 2.7692312,2.7692311 0 0 1 3.6923065,8.3076915 H 20.307694 a 2.7692312,2.7692311 0 0 1 2.769231,2.7692315 v 9.230771"
     id="path1"
     style="stroke-width:1.84615" /><g
     inkscape:groupmode="layer"
     id="layer2"
     inkscape:label="Layer 2"><rect
       style="fill:#000000;stroke-width:1.58577"
       id="rect1"
       width="19.400393"
       height="12.515702"
       x="2.3569379"
       y="9.5558672" /></g><g
     inkscape:groupmode="layer"
     id="layer3"
     inkscape:label="Layer 3"
     transform="matrix(0.99999018,0,0,1.0000001,-0.34389023,0.1264006)"><path
       style="display:inline;fill:#ffffff;stroke:#ffffff;stroke-width:0.246154;stroke-linejoin:round;stroke-dasharray:none;stroke-opacity:1;paint-order:normal"
       d="m 19.92607,19.91401 c 0,0 -0.547089,-3.39256 -3.816051,-4.605581 -0.850243,-0.844184 -1.956769,-3.191446 -1.948237,-2.560097 -0.813925,-0.976763 -1.356162,-1.61911 -1.688281,-1.416755 -0.591517,0.360403 -0.713898,-0.598405 -2.25048,-0.516802 -1.5365813,0.08161 -2.1641649,0.895149 -3.7777301,-0.08625 -0.028443,0.643386 0.8753404,1.176441 0.9983773,1.459532 -0.5673446,0.0877 -3.0710829,0.661336 -3.3349661,1.239254 0.8082315,-0.133622 1.6474416,-0.218728 2.4829544,0.08229 -0.4379867,0.04651 -0.8943166,0.144171 -1.2567351,0.403 0.5645762,-0.06004 0.9548642,0.03043 1.0410131,0.165585 C 6.0071271,14.137716 3.846755,15.036679 3.5726011,15.68163 4.4714406,15.520206 6.4564626,15.168891 6.8204909,15.491095 6.6169881,15.635282 5.2325325,16.19362 5.2325325,16.19362 l 2.0533086,0.01362 c 0,0 -2.1311966,1.144236 -2.0601086,1.795211 0.5270007,-0.587982 1.5481134,-0.751297 1.9018798,-0.624779 -0.038031,0.166743 -0.8072359,1.141583 -0.8072359,1.141583 0,0 1.8658754,-0.70429 2.143004,-0.507879 -0.165179,0.249295 -0.2046448,0.39267 -0.1545255,0.636736 0.3193842,-0.466948 1.6536146,-0.471196 1.6536146,-0.471196 0,0 -0.1895594,0.141722 -0.7608104,0.330384 0.7813931,0.631539 1.9024219,0.405896 2.1756919,0.419958 -0.100267,0.309986 -0.811043,0.446185 -0.912037,0.491251 0.67887,0.251244 1.734546,-0.395035 2.760376,-0.44248 1.018564,0.05431 2.164707,0.08671 3.212001,0.117354 1.080284,0.03162 2.055395,0.06137 2.676815,0.111372 0.39272,0.104664 0.811564,0.709262 0.811564,0.709262 z"
       id="path9"
       sodipodi:nodetypes="cccscccccccccccccccccccccsccc" /><path
       style="fill:#000000;stroke:#000000;stroke-width:0.136489;stroke-linejoin:round;stroke-dasharray:none;stroke-opacity:1;paint-order:normal"
       d="m 11.07614,12.23728 c 1.350279,-0.30168 3.380213,1.450185 3.380213,1.450185 0,0 -0.405199,0.159947 -0.394537,0.202601 -0.202616,0.415861 1.187262,1.368925 1.514164,2.21793 C 9.5787447,14.68784 8.9820529,15.602817 7.9625054,15.873409 8.8221489,14.794421 10.480423,14.815056 11.172109,14.615158 10.302749,13.887339 9.0391483,13.869113 8.8368812,13.80476 9.3678844,12.987933 11.446431,13.128199 11.982506,13.239613 11.669504,12.653363 11.32056,12.514448 11.07614,12.23728 Z"
       id="path14"
       sodipodi:nodetypes="ccccccccc" /><path
       style="display:inline;fill:#ff0000;stroke:#000000;stroke-width:0.123076;stroke-linejoin:round;stroke-dasharray:none;stroke-opacity:1;paint-order:normal"
       d="m 12.044224,13.911795 c 0.927889,-0.115372 1.754807,1.447117 2.389422,1.067309 -0.336538,0.360576 -0.654115,0.288698 -1.346152,0.206731 -0.692037,-0.08197 -1.370193,-0.293269 -1.370193,-0.293269 0.116985,-0.315706 0.07161,-0.900203 0.326923,-0.980771 z"
       id="path13"
       sodipodi:nodetypes="cczcc" /><path
       style="fill:#ff0000;stroke:#000000;stroke-width:0.254706;stroke-linejoin:round;stroke-dasharray:none;stroke-opacity:1;paint-order:normal"
       d="m 20.030352,18.234842 c 0,0 -2.272191,-1.736221 -3.304944,-1.895859 -0.1666,0.139329 0.296483,0.492417 0.153719,0.659428 -1.469594,0.483936 -6.264022,-1.071571 -6.264022,-1.071571 0,0 0.02721,1.689639 0.538015,2.225573 0.723541,0.788483 6.278572,1.218324 6.278572,1.218324 l 3.462359,0.458964 z"
       id="path17"
       sodipodi:nodetypes="cccccccc" /><path
       style="fill:#000000;stroke:#000000;stroke-width:0.13662;stroke-linejoin:round;stroke-dasharray:none;stroke-opacity:1;paint-order:normal"
       d="m 20.389138,19.613307 c -1.056912,-1.303664 -6.936567,-2.338053 -8.974359,-2.930831 0.03805,0.369668 0.331689,1.324454 1.750446,1.707751 -0.11696,-0.237624 -0.517661,-0.816519 -0.517661,-0.816519 0,0 4.844126,0.283191 6.473447,1.905211 0.874335,1.077613 1.304858,0.301771 1.268127,0.134388 z"
       id="path16"
       sodipodi:nodetypes="cccccc" /><ellipse
       style="fill:#000000;stroke:#000000;stroke-width:0.200001;stroke-linejoin:round;stroke-dasharray:none;stroke-opacity:1;paint-order:normal"
       id="path18"
       cx="13.135035"
       cy="14.76227"
       rx="0.31054991"
       ry="0.32617185" /><ellipse
       style="fill:#ffffff;stroke:#ffffff;stroke-width:0.200001;stroke-linejoin:round;stroke-dasharray:none;stroke-opacity:1;paint-order:normal"
       id="path19"
       cx="13.127222"
       cy="14.797426"
       rx="0.05664118"
       ry="0.056640618" /></g></svg>
