<?xml version="1.0" encoding="UTF-8" standalone="no"?>
<svg
   fill="none"
   viewBox="0 0 24 24"
   stroke-width="1.5"
   stroke="currentColor"
   class="size-6"
   version="1.1"
   id="svg1"
   sodipodi:docname="favicon.svg"
   xml:space="preserve"
   inkscape:export-filename="favicon.svg"
   inkscape:export-xdpi="96"
   inkscape:export-ydpi="96"
   inkscape:version="1.4.2 (ebf0e940d0, 2025-05-08)"
   xmlns:inkscape="http://www.inkscape.org/namespaces/inkscape"
   xmlns:sodipodi="http://sodipodi.sourceforge.net/DTD/sodipodi-0.dtd"
   xmlns="http://www.w3.org/2000/svg"
   xmlns:svg="http://www.w3.org/2000/svg"><defs
     id="defs1" /><sodipodi:namedview
     id="namedview1"
     pagecolor="#505050"
     bordercolor="#eeeeee"
     borderopacity="1"
     inkscape:showpageshadow="0"
     inkscape:pageopacity="0"
     inkscape:pagecheckerboard="0"
     inkscape:deskcolor="#505050"
     showguides="true"
     inkscape:export-bgcolor="#ffffff00"
     inkscape:zoom="16"
     inkscape:cx="-18.6875"
     inkscape:cy="7.875"
     inkscape:window-width="2530"
     inkscape:window-height="1382"
     inkscape:window-x="0"
     inkscape:window-y="0"
     inkscape:window-maximized="1"
     inkscape:current-layer="layer3" /><path
     stroke-linecap="round"
     stroke-linejoin="round"
     d="m 7.3766925,2.9303675 v 2.25 m 10.4999995,-2.25 v 2.25 M 3.6266925,18.680368 V 7.4303675 a 2.25,2.25 0 0 1 2.25,-2.25 H 19.376692 a 2.25,2.25 0 0 1 2.25,2.25 V 18.680368 m -17.9999995,0 a 2.25,2.25 0 0 0 2.25,2.25 H 19.376692 a 2.25,2.25 0 0 0 2.25,-2.25 m -17.9999995,0 v -7.5 a 2.25,2.25 0 0 1 2.25,-2.2500005 H 19.376692 a 2.25,2.25 0 0 1 2.25,2.2500005 v 7.5"
     id="path1" /><g
     inkscape:groupmode="layer"
     id="layer2"
     inkscape:label="Layer 2"><rect
       style="fill:#000000;stroke-width:1.28844"
       id="rect1"
       width="15.762817"
       height="10.169007"
       x="4.7917056"
       y="9.9445105" /></g><g
     inkscape:groupmode="layer"
     id="layer3"
     inkscape:label="Layer 3"
     transform="matrix(0.99999018,0,0,1.0000001,-0.34389023,0.1264006)"><path
       style="display:inline;fill:#ffffff;stroke:#ffffff;stroke-width:0.2;stroke-linejoin:round;stroke-dasharray:none;stroke-opacity:1;paint-order:normal"
       d="m 19.131131,18.3368 c 0,0 -0.444509,-2.756455 -3.10054,-3.742035 -0.690823,-0.685899 -1.589876,-2.593049 -1.582943,-2.080078 -0.661314,-0.79362 -1.101881,-1.315527 -1.371728,-1.151113 -0.480607,0.292827 -0.580042,-0.486204 -1.828515,-0.419903 -1.2484717,0.06631 -1.7583833,0.72731 -3.0694048,-0.07008 -0.02311,0.52275 0.711214,0.955858 0.8111815,1.18587 -0.4609675,0.07126 -2.4952545,0.537335 -2.7096595,1.006893 0.656688,-0.108568 1.338546,-0.177716 2.0174,0.06686 -0.355864,0.03779 -0.726632,0.117138 -1.021097,0.327437 0.458718,-0.04878 0.775827,0.02473 0.845823,0.134539 -0.299656,0.04837 -2.054958,0.778775 -2.277708,1.302797 0.730307,-0.131156 2.343137,-0.4166 2.63891,-0.15481 -0.165346,0.117152 -1.290216,0.570802 -1.290216,0.570802 l 1.668313,0.01106 c 0,0 -1.731597,0.929692 -1.673838,1.458609 0.428188,-0.477735 1.257842,-0.61043 1.545277,-0.507633 -0.0309,0.135478 -0.655879,0.927536 -0.655879,0.927536 0,0 1.5160235,-0.572235 1.7411905,-0.412652 -0.134208,0.202552 -0.166274,0.319044 -0.125552,0.517348 0.2594996,-0.379396 1.3435613,-0.382847 1.3435613,-0.382847 0,0 -0.154017,0.11515 -0.618158,0.268437 0.634882,0.513126 1.545718,0.329791 1.767749,0.341217 -0.08147,0.251863 -0.658972,0.362524 -0.74103,0.39914 0.551583,0.204136 1.409319,-0.320966 2.242806,-0.359515 0.827582,0.04412 1.758824,0.07045 2.60975,0.09535 0.877731,0.02569 1.670008,0.04986 2.174912,0.09049 0.319085,0.08504 0.659395,0.576276 0.659395,0.576276 z"
       id="path9"
       sodipodi:nodetypes="cccscccccccccccccccccccccsccc" /><path
       style="fill:#000000;stroke:#000000;stroke-width:0.110897;stroke-linejoin:round;stroke-dasharray:none;stroke-opacity:1;paint-order:normal"
       d="m 11.940564,12.099457 c 1.097102,-0.245115 2.746423,1.178276 2.746423,1.178276 0,0 -0.329224,0.129957 -0.320561,0.164612 -0.164626,0.337888 0.96465,1.112252 1.230258,1.802069 -4.872753,-1.153877 -5.357565,-0.410459 -6.1859472,-0.190603 0.6984602,-0.876676 2.0458072,-0.859911 2.6078022,-1.022328 -0.706354,-0.591353 -1.73303,-0.606161 -1.897372,-0.658448 0.43144,-0.663673 2.120258,-0.549706 2.55582,-0.459182 -0.254315,-0.476328 -0.537831,-0.589197 -0.736423,-0.814396 z"
       id="path14"
       sodipodi:nodetypes="ccccccccc" /><path
       style="display:inline;fill:#f2f2f2;stroke:#000000;stroke-width:0.1;stroke-linejoin:round;stroke-dasharray:none;stroke-opacity:1;paint-order:normal"
       d="m 12.727133,13.460001 c 0.753909,-0.09374 1.42578,1.175782 1.941405,0.867188 -0.273438,0.292968 -0.531469,0.234567 -1.093749,0.167969 -0.56228,-0.0666 -1.113281,-0.238281 -1.113281,-0.238281 0.09505,-0.256511 0.05818,-0.731415 0.265625,-0.796876 z"
       id="path13"
       sodipodi:nodetypes="cczcc" /><path
       style="fill:#000000;stroke:#000000;stroke-width:0.111004;stroke-linejoin:round;stroke-dasharray:none;stroke-opacity:1;paint-order:normal"
       d="m 19.507374,18.092478 c -0.85874,-1.059227 -5.63596,-1.899667 -7.291665,-2.3813 0.03091,0.300356 0.269497,1.076119 1.422237,1.387548 -0.09503,-0.193069 -0.4206,-0.663421 -0.4206,-0.663421 0,0 3.935852,0.230092 5.259675,1.547983 0.710397,0.875561 1.060198,0.245189 1.030353,0.10919 z"
       id="path16"
       sodipodi:nodetypes="cccccc" /><path
       style="fill:none;stroke:#000000;stroke-width:0.206949;stroke-linejoin:round;stroke-dasharray:none;stroke-opacity:1;paint-order:normal"
       d="m 19.21586,16.972476 c 0,0 -1.846154,-1.41068 -2.685266,-1.540386 -0.135362,0.113205 0.240892,0.400089 0.124896,0.535786 -1.194044,0.393198 -5.089516,-0.870652 -5.089516,-0.870652 0,0 0.0221,1.372832 0.437136,1.808278 0.587878,0.640642 5.10134,0.989888 5.10134,0.989888 l 2.813166,0.372908 z"
       id="path17"
       sodipodi:nodetypes="cccccccc" /></g></svg>
